<svg xmlns="http://www.w3.org/2000/svg" viewBox="0 0 1200 675" role="img" aria-labelledby="title desc">
  <title id="title">Compliance learning visual</title><desc id="desc">Abstract document layers with verified checkpoints.</desc>
  <defs><linearGradient id="bg" x2="1" y2="1"><stop stop-color="#07070a"/><stop offset="1" stop-color="#17101c"/></linearGradient><linearGradient id="hot" x2="1" y2="1"><stop stop-color="#ff1493"/><stop offset="1" stop-color="#8b5cf6"/></linearGradient></defs>
  <rect width="1200" height="675" rx="42" fill="url(#bg)"/><circle cx="1000" cy="130" r="280" fill="#ff1493" opacity=".08"/><circle cx="170" cy="590" r="260" fill="#8b5cf6" opacity=".1"/>
  <g transform="translate(305 105) rotate(-7 250 230)"><rect width="500" height="470" rx="38" fill="#12131b" stroke="#ffffff" stroke-opacity=".12"/></g><g transform="translate(395 88) rotate(5 250 230)"><rect width="500" height="470" rx="38" fill="#191923" stroke="#ff1493" stroke-opacity=".25"/></g>
  <g transform="translate(350 105)"><rect width="500" height="470" rx="38" fill="#20202b" stroke="#ffffff" stroke-opacity=".16"/><rect x="48" y="50" width="170" height="20" rx="10" fill="url(#hot)"/><rect x="48" y="104" width="390" height="13" rx="7" fill="#ffffff" opacity=".17"/><rect x="48" y="139" width="330" height="13" rx="7" fill="#ffffff" opacity=".1"/><g transform="translate(48 205)"><circle cx="26" cy="26" r="26" fill="#6ee7a8" opacity=".14"/><path d="m13 26 9 9 18-22" fill="none" stroke="#6ee7a8" stroke-width="6" stroke-linecap="round"/><rect x="75" y="10" width="295" height="12" rx="6" fill="#fff" opacity=".15"/><rect x="75" y="36" width="220" height="10" rx="5" fill="#fff" opacity=".08"/></g><g transform="translate(48 298)"><circle cx="26" cy="26" r="26" fill="#6ee7a8" opacity=".14"/><path d="m13 26 9 9 18-22" fill="none" stroke="#6ee7a8" stroke-width="6" stroke-linecap="round"/><rect x="75" y="10" width="275" height="12" rx="6" fill="#fff" opacity=".15"/><rect x="75" y="36" width="245" height="10" rx="5" fill="#fff" opacity=".08"/></g><rect x="48" y="398" width="180" height="34" rx="17" fill="url(#hot)"/></g>
  <text x="68" y="88" fill="#f7f8fb" font-family="Inter,Segoe UI,sans-serif" font-size="26" font-weight="800" letter-spacing="5">VERIFIED KNOWLEDGE</text>
</svg>
