<svg xmlns="http://www.w3.org/2000/svg" viewBox="0 0 1200 675" role="img" aria-labelledby="title desc">
  <title id="title">Professional practice visual</title><desc id="desc">Layered translucent cards connected through a learning workflow.</desc>
  <defs><linearGradient id="bg" x2="1" y2="1"><stop stop-color="#07080c"/><stop offset="1" stop-color="#1a0c1b"/></linearGradient><linearGradient id="a" x2="1" y2="1"><stop stop-color="#ff4eb7"/><stop offset="1" stop-color="#b719ee"/></linearGradient></defs>
  <rect width="1200" height="675" rx="42" fill="url(#bg)"/><circle cx="250" cy="220" r="230" fill="#ff1493" opacity=".09"/><circle cx="990" cy="530" r="300" fill="#8b5cf6" opacity=".12"/>
  <g transform="translate(150 170)"><rect width="280" height="340" rx="34" fill="#181a24" stroke="#ffffff" stroke-opacity=".14"/><rect x="35" y="42" width="110" height="18" rx="9" fill="url(#a)"/><rect x="35" y="91" width="205" height="12" rx="6" fill="#ffffff" opacity=".16"/><rect x="35" y="120" width="178" height="12" rx="6" fill="#ffffff" opacity=".1"/><rect x="35" y="184" width="210" height="105" rx="22" fill="#ff1493" opacity=".1" stroke="#ff1493" stroke-opacity=".3"/></g>
  <g transform="translate(460 110)"><rect width="280" height="410" rx="34" fill="#20202c" stroke="#ff4eb7" stroke-opacity=".35"/><circle cx="65" cy="70" r="27" fill="url(#a)"/><rect x="108" y="55" width="124" height="14" rx="7" fill="#ffffff" opacity=".7"/><rect x="108" y="80" width="92" height="10" rx="5" fill="#ffffff" opacity=".16"/><path d="m58 180 42 42 92-100" fill="none" stroke="#6ee7a8" stroke-width="14" stroke-linecap="round" stroke-linejoin="round"/><rect x="38" y="275" width="204" height="58" rx="18" fill="url(#a)"/></g>
  <g transform="translate(770 190)"><rect width="280" height="310" rx="34" fill="#181a24" stroke="#ffffff" stroke-opacity=".14"/><rect x="34" y="36" width="212" height="118" rx="24" fill="#8b5cf6" opacity=".15"/><path d="M63 125 110 78l32 31 41-53 35 69" fill="none" stroke="#22d3ee" stroke-width="8" stroke-linecap="round"/><rect x="34" y="198" width="190" height="13" rx="7" fill="#ffffff" opacity=".16"/><rect x="34" y="230" width="148" height="13" rx="7" fill="#ffffff" opacity=".1"/></g>
  <text x="70" y="90" fill="#f7f8fb" font-family="Inter,Segoe UI,sans-serif" font-size="26" font-weight="800" letter-spacing="5">STRUCTURED PRACTICE</text>
</svg>
